<?xml version="1.0" encoding="UTF-8"?>
<svg xmlns="http://www.w3.org/2000/svg"
     xmlns:xlink="http://www.w3.org/1999/xlink"
     xmlns:ev="http://www.w3.org/2001/xml-events"
     width="2300" height="975">
  <rect width="100%" height="100%" fill="white" />
  <polyline points="185,20 2100,20 2290,715 1450,950 830,950 5,715 185,20" style="fill:none;stroke:black;stroke-width:3;stroke-opacity:0.71" />
  <g id="left" transform="rotate(15, 500, 0)">
    <rect x="225" y="125" rx="20" ry="20" width="150" height="150" style="fill:white;fill-opacity:0;stroke:black;stroke-width:3;stroke-opacity:0.71" />
    <text x="250" y="260" font-family="Arial" font-size="35" text-anchor="start" fill="black">Q</text>
    <text x="360" y="171" font-family="Arial" font-size="25" text-anchor="end" fill="blue">/</text>
    <text x="240" y="171" font-family="Arial" font-size="25" text-anchor="start" fill="red">\</text>
    <text x="300" y="200" font-family="Arial" font-size="25" text-anchor="middle" fill="green">MSc↑</text>

    <rect x="225" y="300" rx="20" ry="20" width="150" height="150" style="fill:white;fill-opacity:0;stroke:black;stroke-width:3;stroke-opacity:0.71" />
    <text x="250" y="435" font-family="Arial" font-size="35" text-anchor="start" fill="black">A</text>
    <text x="360" y="346" font-family="Arial" font-size="25" text-anchor="end" fill="blue">"</text>
    <text x="240" y="346" font-family="Arial" font-size="25" text-anchor="start" fill="red">'</text>
    <text x="300" y="375" font-family="Arial" font-size="25" text-anchor="middle" fill="green">MSpd</text>

    <rect x="225" y="475" rx="20" ry="20" width="150" height="150" style="fill:white;fill-opacity:0;stroke:black;stroke-width:3;stroke-opacity:0.71" />
    <text x="250" y="610" font-family="Arial" font-size="35" text-anchor="start" fill="black">Z</text>
    <text x="360" y="521" font-family="Arial" font-size="25" text-anchor="end" fill="blue">(</text>
    <text x="240" y="521" font-family="Arial" font-size="25" text-anchor="start" fill="red">`</text>
    <text x="300" y="550" font-family="Arial" font-size="25" text-anchor="middle" fill="green">MSc↓</text>

    <rect x="225" y="650" rx="20" ry="20" width="150" height="150" style="fill:white;fill-opacity:0;stroke:black;stroke-width:3;stroke-opacity:0.71" />
    <text x="250" y="785" font-family="Arial" font-size="35" text-anchor="start" fill="black">Esc</text>
    <text x="360" y="696" font-family="Arial" font-size="25" text-anchor="end" fill="red">FUN</text>

    <rect x="400" y="75" rx="20" ry="20" width="150" height="150" style="fill:white;fill-opacity:0;stroke:black;stroke-width:3;stroke-opacity:0.71" />
    <text x="425" y="210" font-family="Arial" font-size="35" text-anchor="start" fill="black">W</text>
    <text x="535" y="121" font-family="Arial" font-size="25" text-anchor="end" fill="blue">@</text>
    <text x="475" y="150" font-family="Arial" font-size="25" text-anchor="middle" fill="green">McL</text>

    <rect x="400" y="250" rx="20" ry="20" width="150" height="150" style="fill:white;fill-opacity:0;stroke:black;stroke-width:3;stroke-opacity:0.71" />
    <text x="425" y="385" font-family="Arial" font-size="35" text-anchor="start" fill="black">R</text>
    <text x="535" y="296" font-family="Arial" font-size="25" text-anchor="end" fill="blue">←</text>
    <text x="415" y="296" font-family="Arial" font-size="25" text-anchor="start" fill="red">&#128264; 0</text>
    <text x="475" y="325" font-family="Arial" font-size="25" text-anchor="middle" fill="green">M←</text>

    <rect x="400" y="425" rx="20" ry="20" width="150" height="150" style="fill:white;fill-opacity:0;stroke:black;stroke-width:3;stroke-opacity:0.71" />
    <text x="425" y="560" font-family="Arial" font-size="35" text-anchor="start" fill="black">X</text>
    <text x="535" y="471" font-family="Arial" font-size="25" text-anchor="end" fill="blue">)</text>
    <text x="415" y="471" font-family="Arial" font-size="25" text-anchor="start" fill="red">´</text>
    <text x="475" y="500" font-family="Arial" font-size="25" text-anchor="middle" fill="green">Pg↑</text>

    <rect x="400" y="600" rx="20" ry="20" width="150" height="150" style="fill:white;fill-opacity:0;stroke:black;stroke-width:3;stroke-opacity:0.71" />
    <text x="425" y="735" font-family="Arial" font-size="35" text-anchor="start" fill="black">Tab</text>

    <rect x="575" y="25" rx="20" ry="20" width="150" height="150" style="fill:white;fill-opacity:0;stroke:black;stroke-width:3;stroke-opacity:0.71" />
    <text x="600" y="160" font-family="Arial" font-size="35" text-anchor="start" fill="black">F</text>
    <text x="710" y="71" font-family="Arial" font-size="25" text-anchor="end" fill="blue">↑</text>
    <text x="650" y="100" font-family="Arial" font-size="25" text-anchor="middle" fill="green">M↑</text>

    <rect x="575" y="200" rx="20" ry="20" width="150" height="150" style="fill:white;fill-opacity:0;stroke:black;stroke-width:3;stroke-opacity:0.71" />
    <text x="600" y="335" font-family="Arial" font-size="35" text-anchor="start" fill="black">S</text>
    <text x="710" y="246" font-family="Arial" font-size="25" text-anchor="end" fill="blue">↓</text>
    <text x="590" y="246" font-family="Arial" font-size="25" text-anchor="start" fill="red">&#128264; -</text>
    <text x="650" y="275" font-family="Arial" font-size="25" text-anchor="middle" fill="green">M↓</text>

    <rect x="575" y="375" rx="20" ry="20" width="150" height="150" style="fill:white;fill-opacity:0;stroke:black;stroke-width:3;stroke-opacity:0.71" />
    <text x="600" y="510" font-family="Arial" font-size="35" text-anchor="start" fill="black">C</text>
    <text x="710" y="421" font-family="Arial" font-size="25" text-anchor="end" fill="blue">{</text>
    <text x="590" y="421" font-family="Arial" font-size="25" text-anchor="start" fill="red">Æ</text>
    <text x="650" y="450" font-family="Arial" font-size="25" text-anchor="middle" fill="green">Pg↓</text>

    <rect x="575" y="550" rx="20" ry="20" width="150" height="150" style="fill:white;fill-opacity:0;stroke:black;stroke-width:3;stroke-opacity:0.71" />
    <text x="600" y="685" font-family="Arial" font-size="35" text-anchor="start" fill="black">Super</text>

    <rect x="750" y="75" rx="20" ry="20" width="150" height="150" style="fill:white;fill-opacity:0;stroke:black;stroke-width:3;stroke-opacity:0.71" />
    <text x="775" y="210" font-family="Arial" font-size="35" text-anchor="start" fill="black">P</text>
    <text x="885" y="121" font-family="Arial" font-size="25" text-anchor="end" fill="blue">€</text>
    <text x="825" y="150" font-family="Arial" font-size="25" text-anchor="middle" fill="green">McM</text>

    <rect x="750" y="250" rx="20" ry="20" width="150" height="150" style="fill:white;fill-opacity:0;stroke:black;stroke-width:3;stroke-opacity:0.71" />
    <text x="775" y="385" font-family="Arial" font-size="35" text-anchor="start" fill="black">T</text>
    <text x="885" y="296" font-family="Arial" font-size="25" text-anchor="end" fill="blue">→</text>
    <text x="765" y="296" font-family="Arial" font-size="25" text-anchor="start" fill="red">&#128264; +</text>
    <text x="825" y="325" font-family="Arial" font-size="25" text-anchor="middle" fill="green">M→</text>

    <rect x="750" y="425" rx="20" ry="20" width="150" height="150" style="fill:white;fill-opacity:0;stroke:black;stroke-width:3;stroke-opacity:0.71" />
    <text x="775" y="560" font-family="Arial" font-size="35" text-anchor="start" fill="black">V</text>
    <text x="885" y="471" font-family="Arial" font-size="25" text-anchor="end" fill="blue">}</text>
    <text x="765" y="471" font-family="Arial" font-size="25" text-anchor="start" fill="red">Ø</text>
    <text x="825" y="500" font-family="Arial" font-size="25" text-anchor="middle" fill="green">Home</text>

    <rect x="750" y="600" rx="20" ry="20" width="150" height="150" style="fill:white;fill-opacity:0;stroke:black;stroke-width:3;stroke-opacity:0.71" />
    <text x="775" y="735" font-family="Arial" font-size="35" text-anchor="start" fill="black">Shift</text>

    <rect x="925" y="125" rx="20" ry="20" width="150" height="150" style="fill:white;fill-opacity:0;stroke:black;stroke-width:3;stroke-opacity:0.71" />
    <text x="950" y="260" font-family="Arial" font-size="35" text-anchor="start" fill="black">G</text>
    <text x="1060" y="171" font-family="Arial" font-size="25" text-anchor="end" fill="blue">$</text>
    <text x="1000" y="200" font-family="Arial" font-size="25" text-anchor="middle" fill="green">McR</text>

    <rect x="925" y="300" rx="20" ry="20" width="150" height="150" style="fill:white;fill-opacity:0;stroke:black;stroke-width:3;stroke-opacity:0.71" />
    <text x="950" y="435" font-family="Arial" font-size="35" text-anchor="start" fill="black">D</text>
    <text x="1060" y="346" font-family="Arial" font-size="25" text-anchor="end" fill="blue">#</text>
    <text x="940" y="346" font-family="Arial" font-size="25" text-anchor="start" fill="red">%</text>

    <rect x="925" y="475" rx="20" ry="20" width="150" height="150" style="fill:white;fill-opacity:0;stroke:black;stroke-width:3;stroke-opacity:0.71" />
    <text x="950" y="610" font-family="Arial" font-size="35" text-anchor="start" fill="black">B</text>
    <text x="1060" y="521" font-family="Arial" font-size="25" text-anchor="end" fill="blue">[</text>
    <text x="940" y="521" font-family="Arial" font-size="25" text-anchor="start" fill="red">^</text>
    <text x="1000" y="550" font-family="Arial" font-size="25" text-anchor="middle" fill="green">End</text>

    <rect x="925" y="650" rx="20" ry="20" width="150" height="150" style="fill:white;fill-opacity:0;stroke:black;stroke-width:3;stroke-opacity:0.71" />
    <text x="950" y="785" font-family="Arial" font-size="35" text-anchor="start" fill="black">Bksp</text>
    <text x="1060" y="696" font-family="Arial" font-size="25" text-anchor="end" fill="blue">Del</text>
    <text x="940" y="696" font-family="Arial" font-size="25" text-anchor="start" fill="red">Ins</text>

    <rect x="1100" y="425" rx="20" ry="20" width="150" height="150" style="fill:white;fill-opacity:0;stroke:black;stroke-width:3;stroke-opacity:0.71" />
    <text x="1125" y="560" font-family="Arial" font-size="35" text-anchor="start" fill="black">&amp;</text>
    <text x="1235" y="471" font-family="Arial" font-size="25" text-anchor="end" fill="blue">]</text>
    <text x="1115" y="471" font-family="Arial" font-size="25" text-anchor="start" fill="red">|</text>

    <rect x="1100" y="600" rx="20" ry="20" width="150" height="150" style="fill:white;fill-opacity:0;stroke:black;stroke-width:3;stroke-opacity:0.71" />
    <text x="1125" y="735" font-family="Arial" font-size="35" text-anchor="start" fill="black">Ctrl</text>

  </g>

  <g id="right" transform="rotate(-15, 1900, 900)">
    <rect x="1275" y="425" rx="20" ry="20" width="150" height="150" style="fill:white;fill-opacity:0;stroke:black;stroke-width:3;stroke-opacity:0.71" />
    <text x="1300" y="560" font-family="Arial" font-size="35" text-anchor="start" fill="black">~</text>
    <text x="1410" y="471" font-family="Arial" font-size="25" text-anchor="end" fill="blue">&lt;</text>
    <text x="1290" y="471" font-family="Arial" font-size="25" text-anchor="start" fill="red">&gt;</text>

    <rect x="1275" y="600" rx="20" ry="20" width="150" height="150" style="fill:white;fill-opacity:0;stroke:black;stroke-width:3;stroke-opacity:0.71" />
    <text x="1300" y="735" font-family="Arial" font-size="35" text-anchor="start" fill="black">Alt</text>

    <rect x="1450" y="125" rx="20" ry="20" width="150" height="150" style="fill:white;fill-opacity:0;stroke:black;stroke-width:3;stroke-opacity:0.71" />
    <text x="1475" y="260" font-family="Arial" font-size="35" text-anchor="start" fill="black">J</text>
    <text x="1585" y="171" font-family="Arial" font-size="25" text-anchor="end" fill="blue">Pg↑</text>
    <text x="1465" y="171" font-family="Arial" font-size="25" text-anchor="start" fill="red">Home</text>
    <text x="1525" y="200" font-family="Arial" font-size="25" text-anchor="middle" fill="green">Pg↑</text>

    <rect x="1450" y="300" rx="20" ry="20" width="150" height="150" style="fill:white;fill-opacity:0;stroke:black;stroke-width:3;stroke-opacity:0.71" />
    <text x="1475" y="435" font-family="Arial" font-size="35" text-anchor="start" fill="black">H</text>
    <text x="1585" y="346" font-family="Arial" font-size="25" text-anchor="end" fill="blue">Pg↓</text>
    <text x="1465" y="346" font-family="Arial" font-size="25" text-anchor="start" fill="red">End</text>
    <text x="1525" y="375" font-family="Arial" font-size="25" text-anchor="middle" fill="green">Pg↓</text>

    <rect x="1450" y="475" rx="20" ry="20" width="150" height="150" style="fill:white;fill-opacity:0;stroke:black;stroke-width:3;stroke-opacity:0.71" />
    <text x="1475" y="610" font-family="Arial" font-size="35" text-anchor="start" fill="black">K</text>
    <text x="1585" y="521" font-family="Arial" font-size="25" text-anchor="end" fill="blue">½</text>
    <text x="1465" y="521" font-family="Arial" font-size="25" text-anchor="start" fill="red">§</text>

    <rect x="1450" y="650" rx="20" ry="20" width="150" height="150" style="fill:white;fill-opacity:0;stroke:black;stroke-width:3;stroke-opacity:0.71" />
    <text x="1475" y="785" font-family="Arial" font-size="35" text-anchor="start" fill="black">Space</text>
    <text x="1585" y="696" font-family="Arial" font-size="25" text-anchor="end" fill="green">MOVE</text>

    <rect x="1625" y="75" rx="20" ry="20" width="150" height="150" style="fill:white;fill-opacity:0;stroke:black;stroke-width:3;stroke-opacity:0.71" />
    <text x="1650" y="210" font-family="Arial" font-size="35" text-anchor="start" fill="black">L</text>
    <text x="1760" y="121" font-family="Arial" font-size="25" text-anchor="end" fill="blue">7</text>
    <text x="1640" y="121" font-family="Arial" font-size="25" text-anchor="start" fill="red">F7</text>

    <rect x="1625" y="250" rx="20" ry="20" width="150" height="150" style="fill:white;fill-opacity:0;stroke:black;stroke-width:3;stroke-opacity:0.71" />
    <text x="1650" y="385" font-family="Arial" font-size="35" text-anchor="start" fill="black">N</text>
    <text x="1760" y="296" font-family="Arial" font-size="25" text-anchor="end" fill="blue">4</text>
    <text x="1640" y="296" font-family="Arial" font-size="25" text-anchor="start" fill="red">F4</text>
    <text x="1700" y="325" font-family="Arial" font-size="25" text-anchor="middle" fill="green">←</text>

    <rect x="1625" y="425" rx="20" ry="20" width="150" height="150" style="fill:white;fill-opacity:0;stroke:black;stroke-width:3;stroke-opacity:0.71" />
    <text x="1650" y="560" font-family="Arial" font-size="35" text-anchor="start" fill="black">M</text>
    <text x="1760" y="471" font-family="Arial" font-size="25" text-anchor="end" fill="blue">1</text>
    <text x="1640" y="471" font-family="Arial" font-size="25" text-anchor="start" fill="red">F1</text>

    <rect x="1625" y="600" rx="20" ry="20" width="150" height="150" style="fill:white;fill-opacity:0;stroke:black;stroke-width:3;stroke-opacity:0.71" />
    <text x="1650" y="735" font-family="Arial" font-size="35" text-anchor="start" fill="blue">CHAR</text>

    <rect x="1800" y="25" rx="20" ry="20" width="150" height="150" style="fill:white;fill-opacity:0;stroke:black;stroke-width:3;stroke-opacity:0.71" />
    <text x="1825" y="160" font-family="Arial" font-size="35" text-anchor="start" fill="black">U</text>
    <text x="1935" y="71" font-family="Arial" font-size="25" text-anchor="end" fill="blue">8</text>
    <text x="1815" y="71" font-family="Arial" font-size="25" text-anchor="start" fill="red">F8</text>
    <text x="1875" y="100" font-family="Arial" font-size="25" text-anchor="middle" fill="green">↑</text>

    <rect x="1800" y="200" rx="20" ry="20" width="150" height="150" style="fill:white;fill-opacity:0;stroke:black;stroke-width:3;stroke-opacity:0.71" />
    <text x="1825" y="335" font-family="Arial" font-size="35" text-anchor="start" fill="black">E</text>
    <text x="1935" y="246" font-family="Arial" font-size="25" text-anchor="end" fill="blue">5</text>
    <text x="1815" y="246" font-family="Arial" font-size="25" text-anchor="start" fill="red">F5</text>
    <text x="1875" y="275" font-family="Arial" font-size="25" text-anchor="middle" fill="green">↓</text>

    <rect x="1800" y="375" rx="20" ry="20" width="150" height="150" style="fill:white;fill-opacity:0;stroke:black;stroke-width:3;stroke-opacity:0.71" />
    <text x="1825" y="470" font-size="35" text-anchor="start" fill="black">:</text>
    <text x="1825" y="510" font-family="Arial" font-size="35" text-anchor="start" fill="black">.</text>
    <text x="1935" y="421" font-family="Arial" font-size="25" text-anchor="end" fill="blue">2</text>
    <text x="1815" y="421" font-family="Arial" font-size="25" text-anchor="start" fill="red">F2</text>

    <rect x="1800" y="550" rx="20" ry="20" width="150" height="150" style="fill:white;fill-opacity:0;stroke:black;stroke-width:3;stroke-opacity:0.71" />
    <text x="1825" y="645" font-size="35" text-anchor="start" fill="black">;</text>
    <text x="1825" y="685" font-family="Arial" font-size="35" text-anchor="start" fill="black">,</text>
    <text x="1935" y="596" font-family="Arial" font-size="25" text-anchor="end" fill="blue">0</text>
    <text x="1815" y="596" font-family="Arial" font-size="25" text-anchor="start" fill="red">PrtSc</text>

    <rect x="1975" y="75" rx="20" ry="20" width="150" height="150" style="fill:white;fill-opacity:0;stroke:black;stroke-width:3;stroke-opacity:0.71" />
    <text x="2000" y="210" font-family="Arial" font-size="35" text-anchor="start" fill="black">Y</text>
    <text x="2110" y="121" font-family="Arial" font-size="25" text-anchor="end" fill="blue">9</text>
    <text x="1990" y="121" font-family="Arial" font-size="25" text-anchor="start" fill="red">F9</text>

    <rect x="1975" y="250" rx="20" ry="20" width="150" height="150" style="fill:white;fill-opacity:0;stroke:black;stroke-width:3;stroke-opacity:0.71" />
    <text x="2000" y="385" font-family="Arial" font-size="35" text-anchor="start" fill="black">I</text>
    <text x="2110" y="296" font-family="Arial" font-size="25" text-anchor="end" fill="blue">6</text>
    <text x="1990" y="296" font-family="Arial" font-size="25" text-anchor="start" fill="red">F6</text>
    <text x="2050" y="325" font-family="Arial" font-size="25" text-anchor="middle" fill="green">→</text>

    <rect x="1975" y="425" rx="20" ry="20" width="150" height="150" style="fill:white;fill-opacity:0;stroke:black;stroke-width:3;stroke-opacity:0.71" />
    <text x="2000" y="560" font-family="Arial" font-size="35" text-anchor="start" fill="black">Ö</text>
    <text x="2110" y="471" font-family="Arial" font-size="25" text-anchor="end" fill="blue">3</text>
    <text x="1990" y="471" font-family="Arial" font-size="25" text-anchor="start" fill="red">F3</text>

    <rect x="1975" y="600" rx="20" ry="20" width="150" height="150" style="fill:white;fill-opacity:0;stroke:black;stroke-width:3;stroke-opacity:0.71" />
    <text x="2000" y="695" font-size="35" text-anchor="start" fill="black">!</text>
    <text x="2000" y="735" font-family="Arial" font-size="35" text-anchor="start" fill="black">?</text>
    <text x="2110" y="646" font-family="Arial" font-size="25" text-anchor="end" fill="blue">0</text>

    <rect x="2150" y="125" rx="20" ry="20" width="150" height="150" style="fill:white;fill-opacity:0;stroke:black;stroke-width:3;stroke-opacity:0.71" />
    <text x="2175" y="260" font-family="Arial" font-size="35" text-anchor="start" fill="black">Å</text>
    <text x="2285" y="171" font-family="Arial" font-size="25" text-anchor="end" fill="blue">=</text>
    <text x="2165" y="171" font-family="Arial" font-size="25" text-anchor="start" fill="red">F10</text>
    <text x="2225" y="200" font-family="Arial" font-size="25" text-anchor="middle" fill="green">Home</text>

    <rect x="2150" y="300" rx="20" ry="20" width="150" height="150" style="fill:white;fill-opacity:0;stroke:black;stroke-width:3;stroke-opacity:0.71" />
    <text x="2175" y="435" font-family="Arial" font-size="35" text-anchor="start" fill="black">O</text>
    <text x="2285" y="346" font-family="Arial" font-size="25" text-anchor="end" fill="blue">*</text>
    <text x="2165" y="346" font-family="Arial" font-size="25" text-anchor="start" fill="red">F11</text>
    <text x="2225" y="375" font-family="Arial" font-size="25" text-anchor="middle" fill="green">End</text>

    <rect x="2150" y="475" rx="20" ry="20" width="150" height="150" style="fill:white;fill-opacity:0;stroke:black;stroke-width:3;stroke-opacity:0.71" />
    <text x="2175" y="610" font-family="Arial" font-size="35" text-anchor="start" fill="black">Ä</text>
    <text x="2285" y="521" font-family="Arial" font-size="25" text-anchor="end" fill="blue">+</text>
    <text x="2165" y="521" font-family="Arial" font-size="25" text-anchor="start" fill="red">F12</text>

    <rect x="2150" y="650" rx="20" ry="20" width="150" height="150" style="fill:white;fill-opacity:0;stroke:black;stroke-width:3;stroke-opacity:0.71" />
    <text x="2175" y="785" font-family="Arial" font-size="35" text-anchor="start" fill="black">Enter</text>
    <text x="2285" y="696" font-family="Arial" font-size="25" text-anchor="end" fill="blue">-</text>
    <text x="2165" y="696" font-family="Arial" font-size="25" text-anchor="start" fill="red">_</text>

  </g>
</svg>
